<?xml version="1.0" encoding="utf-8"?>
<!-- Generator: Adobe Illustrator 27.5.0, SVG Export Plug-In . SVG Version: 6.00 Build 0)  -->
<svg version="1.1" id="Layer_1" xmlns="http://www.w3.org/2000/svg" xmlns:xlink="http://www.w3.org/1999/xlink" x="0px" y="0px"
	 viewBox="0 0 5000 3000" style="enable-background:new 0 0 5000 3000;" xml:space="preserve">
<rect style="fill:#FFFFFF;" width="5000" height="3000"/>
<g>
	<g>
		
			<text transform="matrix(1 0 0 1 1354.1979 2164.6709)" style="fill:#192F46; font-family:'Bebas-Regular'; font-size:534.4311px;">Brand Name</text>
	</g>
	<g>
		<path style="fill:#192F46;" d="M2633.352,1175.286c0-89.558-0.141-179.117,0.204-268.674c0.037-9.623-2.988-14.826-11.529-19.518
			c-36.212-19.894-72.085-40.421-107.744-61.293c-8.105-4.744-14.652-5.66-23.043-0.924c-37.556,21.2-75.298,42.078-113.188,62.674
			c-7.848,4.266-10.083,9.919-10.122,18.42c-0.259,56.905-1.266,113.808-1.291,170.712c-0.007,16.359-6.169,27.738-20.31,35.434
			c-44.247,24.083-89.129,47.103-132.439,72.772c-43.35,25.693-87.565,49.783-131.288,74.772c-4.092,2.338-7.896,5.702-12.292,6.892
			c-16.734,4.528-19.815,15.323-19.669,31.636c0.825,92.089,0.365,184.19,0.36,276.288c-0.001,13.673,0.101,13.777,11.738,7.434
			c97.085-52.916,192.707-108.421,288.717-163.24c18.572-10.604,37.053-21.388,55.906-31.471
			c9.778-5.23,13.302-12.103,13.273-23.403c-0.34-134.519-0.171-269.039-0.056-403.559c0.006-6.866,0.29-13.79,1.2-20.586
			c2.296-17.126,16.318-28.508,33.22-27.441c16.569,1.046,26.856,12.4,26.846,30.784c-0.081,151.199-0.344,302.398-0.438,453.596
			c-0.01,16.214-8.784,26.89-22.022,33.511c-53.545,26.779-104.688,57.832-156.634,87.429
			c-85.031,48.447-169.962,97.065-255.722,144.215c-8.536,4.693-17.494,9.228-27.759,8.097
			c-17.82-1.962-29.973-16.654-29.977-36.514c-0.022-113.49,0.069-226.98,0.122-340.469c0.003-6.889,0.541-13.828-0.091-20.658
			c-2.025-21.877,7.437-36.3,26.629-46.477c37.462-19.866,74.412-40.699,111.545-61.184c56.17-30.987,112.248-62.143,168.55-92.889
			c7.998-4.368,11.323-9.608,11.269-18.843c-0.329-55.836,0.117-111.677-0.264-167.513c-0.118-17.324,5.856-29.161,21.733-37.751
			c43.973-23.791,87.309-48.763,130.831-73.383c6.615-3.742,12.912-8.05,19.303-12.179c15.872-10.253,31.112-8.119,46.906,0.963
			c48.072,27.643,96.252,55.109,144.768,81.961c15.618,8.644,25.102,18.926,24.354,38.281c-1.133,29.325,0.406,58.748-0.515,88.087
			c-0.398,12.674,4.052,19.616,14.988,25.573c56.656,30.861,112.724,62.807,169.462,93.515
			c17.215,9.317,26.007,21.153,25.043,41.383c-1.207,25.325-0.125,50.752-0.495,76.128c-0.115,7.942,2.875,12.69,9.857,16.305
			c25.752,13.33,51.114,27.425,76.984,40.516c14.151,7.161,20.739,17.118,20.673,33.493c-0.456,113.488-0.698,226.981,0,340.467
			c0.165,26.829-24.703,36.631-41.175,30.108c-11.222-4.444-17.527-12.505-18.698-24.433c-0.423-4.313-0.194-8.695-0.193-13.045
			c0.033-101.162-0.062-202.324,0.322-303.485c0.04-10.452-3.189-16.458-12.671-21.187c-25.619-12.777-50.633-26.762-76.088-39.878
			c-13.966-7.196-21.024-17.525-20.617-33.791c0.689-27.54-0.03-55.112,0.392-82.662c0.123-8.009-2.899-12.486-9.76-16.276
			c-41.877-23.132-83.553-46.629-125.292-70.013c-11.942-6.691-12.679-6.28-12.698,7.719c-0.058,42.06,0.862,84.146-0.309,126.175
			c-2.342,84.102-0.59,168.202-1.26,252.299c-0.143,17.998-8.994,28.415-24.879,29.592c-18.28,1.355-30.434-7.552-33.479-25.016
			c-0.926-5.312-1-10.819-1.003-16.237c-0.057-87.746-0.041-175.492-0.041-263.238
			C2633.448,1175.286,2633.4,1175.286,2633.352,1175.286z"/>
		<path style="fill:#192F46;" d="M2212.922,1690.36c-13.963,0.029-26.658-9.904-30.224-23.648
			c-3.573-13.768,2.957-28.909,15.744-36.067c30.669-17.168,61.488-34.071,92.052-51.423
			c61.441-34.882,123.282-69.119,183.108-106.724c19.135-12.028,35.655-10.962,54.504,0.015
			c91.121,53.062,181.726,107.033,274.334,157.505c12.965,7.066,20.512,17.637,19.502,32.463
			c-1.557,22.844-24.568,34.376-45.892,22.719c-24.792-13.553-48.994-28.187-73.474-42.313
			c-64.653-37.309-129.338-74.562-193.931-111.974c-4.347-2.518-7.865-2.461-12.082-0.008
			c-46.985,27.335-94.03,54.567-141.057,81.828c-33.232,19.264-66.473,38.511-99.686,57.807
			c-8.137,4.728-16.114,9.735-24.289,14.394C2225.802,1688.2,2219.603,1690.192,2212.922,1690.36z"/>
		<path style="fill:#192F46;" d="M2586.242,1172.705c0,75.378,0.08,150.756-0.052,226.133
			c-0.036,20.556-12.145,32.031-31.924,31.051c-14.447-0.716-25.228-10.553-27.094-24.914c-0.418-3.219-0.401-6.509-0.403-9.766
			c-0.067-146.407-0.117-292.813-0.146-439.22c-0.001-5.07-0.136-10.181,0.421-15.203c1.96-17.664,14.132-28.098,31.658-27.467
			c16.365,0.59,27.655,12.382,27.69,29.99c0.151,76.464,0.065,152.929,0.065,229.394
			C2586.385,1172.705,2586.314,1172.705,2586.242,1172.705z"/>
		<path style="fill:#192F46;" d="M2844.382,1471.75c0-38.794-0.155-77.588,0.063-116.381c0.114-20.191,11.65-32.597,29.845-33.013
			c16.646-0.381,28.523,9.512,30.883,25.939c0.513,3.569,0.522,7.23,0.524,10.849c0.039,75.412,0.05,150.824,0.044,226.236
			c-0.001,11.109-1.056,21.771-11.097,29.186c-10.331,7.63-21.322,8.8-32.79,3.462c-11.616-5.409-17.411-14.784-17.399-27.723
			c0.038-39.519,0.014-79.038,0.014-118.556C2844.44,1471.75,2844.411,1471.75,2844.382,1471.75z"/>
		<path style="fill:#192F46;" d="M2797.285,1238.22c0,19.93,0.217,39.864-0.064,59.79c-0.258,18.317-11.966,30.507-28.517,30.378
			c-18.271-0.142-31.027-12.209-31.157-30.496c-0.285-40.222-0.311-80.447-0.074-120.669c0.101-17.151,12.758-28.902,30.034-28.922
			c17.314-0.02,29.426,11.473,29.728,29.042C2797.584,1197.63,2797.316,1217.927,2797.285,1238.22z"/>
		<path style="fill:#192F46;" d="M2797.335,1452.013c0,14.474,0.126,28.949-0.031,43.421c-0.212,19.55-13.425,33.615-31.064,33.34
			c-17.207-0.268-28.635-13.148-28.701-32.755c-0.102-30.032-0.321-60.069,0.107-90.096c0.334-23.478,21.74-36.951,43.337-27.726
			c10.873,4.645,15.759,13.665,16.025,24.972c0.383,16.273,0.098,32.561,0.098,48.843
			C2797.182,1452.013,2797.259,1452.013,2797.335,1452.013z"/>
		<path style="fill:#192F46;" d="M2351.311,1218.662c0.389,12.679-5.799,22.743-18.3,29.35
			c-18.578,9.819-36.928,20.068-55.49,29.919c-12.884,6.838-28.456,2.909-36.623-8.875c-8.685-12.532-7.008-30.6,4.04-40.823
			c3.171-2.934,6.744-5.549,10.462-7.754c16.828-9.982,33.703-19.888,50.695-29.588
			C2327.043,1178.933,2351.51,1193.256,2351.311,1218.662z"/>
		<path style="fill:#192F46;" d="M2313.275,1317.901c13.75-0.225,22.907,6.174,28.14,18.433c5.156,12.08,2.58,25.18-7.078,34.957
			c-7.748,7.843-17.802,12.293-27.147,17.732c-9.682,5.635-19.661,10.756-29.377,16.335c-14.091,8.092-29.918,5.409-39.783-6.974
			c-9.126-11.456-7.759-31.247,3.013-41.802c5.714-5.599,12.091-10.404,19.354-13.795c10.2-4.763,19.783-10.499,28.907-17.066
			C2296.52,1320.527,2304.346,1317.055,2313.275,1317.901z"/>
		<path style="fill:#192F46;" d="M2093.538,1329.603c-0.768-11.577,5.786-20.189,15.759-26.712
			c17.916-11.718,37.24-20.902,56.306-30.487c10.579-5.318,27.439,1.484,34.882,12.924c8.208,12.616,6.429,29.812-5.193,39.463
			c-6.603,5.483-14.469,9.526-22.012,13.78c-11.01,6.209-22.357,11.709-33.168,18.409
			C2119.609,1369.687,2093.727,1354.626,2093.538,1329.603z"/>
		<path style="fill:#192F46;" d="M2125.462,1488.597c-12.955-0.599-22.309-6.716-27.934-17.954
			c-5.731-11.45-4.397-22.613,3.712-32.544c5.535-6.778,12.363-12.074,20.198-16.215c11.171-5.904,22.785-10.826,33.269-18.251
			c11.896-8.425,29.897-4.426,39.158,7.106c9.305,11.586,9.32,33.802-1.822,43.083c-17.905,14.916-39.622,23.736-60.345,34.011
			C2129.877,1488.736,2127.433,1488.385,2125.462,1488.597z"/>
	</g>
</g>
</svg>
