<?xml version="1.0" encoding="utf-8"?>
<!-- Generator: Adobe Illustrator 27.5.0, SVG Export Plug-In . SVG Version: 6.00 Build 0)  -->
<svg version="1.1" id="Layer_1" xmlns="http://www.w3.org/2000/svg" xmlns:xlink="http://www.w3.org/1999/xlink" x="0px" y="0px"
	 viewBox="0 0 3873 3873" style="enable-background:new 0 0 3873 3873;" xml:space="preserve">
<g id="Layer_x0020_1">
	<circle style="fill-rule:evenodd;clip-rule:evenodd;fill:#669999;" cx="1936.9" cy="1936.9" r="1891.2"/>
	<g id="_454986648">
		<path id="_454987272" style="fill-rule:evenodd;clip-rule:evenodd;fill:#FEFEFE;" d="M2999.9,3206.3H789.6
			c-42.6,0-76.4-34.7-76.4-76.4v-188.3c0-126.1,39.4-246.6,114.3-349.1c74.9-101.7,178.1-175.7,298.6-212.8l182-56.7l155.2-48.9
			l112.7-34.7c28.4-20.5,44.9-52.8,44.9-88.3v-102.4c0-16.5,13.4-29.2,29.2-29.2c15.8,0,29.2,13.4,29.2,29.2v101.7
			c0,56.7-27.6,108.7-74.1,140.3c-2.4,1.6-4.7,3.2-7.9,3.9l-117.4,36.2l-155.2,48.9l-182,56.7c-222.2,69.3-371.9,272.6-371.9,505.1
			v188.3c0,9.5,7.9,18.1,18.1,18.1h2210.3c9.5,0,18.1-7.9,18.1-18.1v-188.3c0-78-17.3-153.7-50.4-225.4c-7.1-15-0.8-32.3,14.2-39.4
			c15-7.1,32.3-0.8,39.4,14.2c37,78.8,55.9,163.1,55.9,249.8V3129C3077.1,3171.7,3042.4,3206.3,2999.9,3206.3L2999.9,3206.3z"/>
		<path id="_454987728" style="fill-rule:evenodd;clip-rule:evenodd;fill:#FEFEFE;" d="M2629.5,2429.4c-3.2,0-5.5-0.8-8.7-1.6
			l-156-48.9l-155.2-48.1l-117.4-36.2c-2.4-0.8-5.5-2.4-7.9-3.9c-46.5-30.7-74.1-83.5-74.1-140.3v-101.7c0-16.5,13.4-29.2,29.2-29.2
			s29.2,13.4,29.2,29.2v101.7c0,35.5,16.5,68.6,44.9,88.3l112.7,34.7l155.2,48.9l156,48.9c15.8,4.7,24.4,21.3,19.7,37
			C2654,2421.5,2642.1,2429.4,2629.5,2429.4z"/>
		<path id="_454987056" style="fill-rule:evenodd;clip-rule:evenodd;fill:#FEFEFE;" d="M1145,3206.3c-16.5,0-29.2-13.4-29.2-29.2
			v-278.9c0-67.8,55.2-122.9,122.9-122.9h78.8c16.5,0,29.2,13.4,29.2,29.2c0,16.5-13.4,29.2-29.2,29.2h-78.8
			c-35.5,0-63.8,28.4-63.8,63.8v278.9C1174.9,3192.9,1161.5,3206.3,1145,3206.3z"/>
		<path id="_454987440" style="fill-rule:evenodd;clip-rule:evenodd;fill:#FEFEFE;" d="M2646.1,3206.3c-16.5,0-29.2-13.4-29.2-29.2
			v-278.9c0-35.5-28.4-63.8-63.8-63.8h-78.8c-16.5,0-29.2-13.4-29.2-29.2c0-16.5,13.4-29.2,29.2-29.2h78.8
			c67.8,0,122.9,55.2,122.9,122.9V3178C2675.2,3192.9,2662.6,3206.3,2646.1,3206.3z"/>
		<path id="_454986984" style="fill-rule:evenodd;clip-rule:evenodd;fill:#FEFEFE;" d="M2318.3,2833.6H1472
			c-16.5,0-29.2-13.4-29.2-29.2c0-16.5,13.4-29.2,29.2-29.2h846.3c16.5,0,29.2,13.4,29.2,29.2
			C2348.2,2820.2,2334.8,2833.6,2318.3,2833.6z"/>
		<path id="_454987560" style="fill-rule:evenodd;clip-rule:evenodd;fill:#FEFEFE;" d="M1394,2976.2c-59.1,0-107.2-48.1-107.2-107.2
			v-517.7c0-16.5,13.4-29.2,29.2-29.2c16.5,0,29.2,13.4,29.2,29.2V2869c0,26.8,21.3,48.1,48.1,48.1c26.8,0,48.1-22.1,48.1-48.1
			v-566.6c0-16.5,13.4-29.2,29.2-29.2c16.5,0,29.2,13.4,29.2,29.2V2869C1501.9,2928.2,1453.8,2976.2,1394,2976.2L1394,2976.2z"/>
		<path id="_454987392" style="fill-rule:evenodd;clip-rule:evenodd;fill:#FEFEFE;" d="M2396.3,2976.2
			c-59.1,0-107.2-48.1-107.2-107.2v-566.6c0-16.5,13.4-29.2,29.2-29.2c16.5,0,29.2,13.4,29.2,29.2V2869c0,26.8,22.1,48.1,48.1,48.1
			s48.1-22.1,48.1-48.1v-517.7c0-16.5,13.4-29.2,29.2-29.2c16.5,0,29.2,13.4,29.2,29.2V2869
			C2503.5,2928.2,2455.4,2976.2,2396.3,2976.2L2396.3,2976.2z"/>
		<path id="_454987320" style="fill-rule:evenodd;clip-rule:evenodd;fill:#FEFEFE;" d="M1895.9,2164.6c-45.7,0-91.4-8.7-135.5-25.2
			c-120.6-46.5-223-127.7-295.5-234c-73.3-106.4-111.9-230.9-111.9-360.1v-158.4c0-16.5,13.4-29.2,29.2-29.2
			c16.5,0,29.2,13.4,29.2,29.2v158.4c0,237.2,148.9,453.9,369.6,539.8c73.3,28.4,154.4,28.4,227.7,0
			c221.4-85.9,370.4-302.6,370.4-539.8v-158.4c0-16.5,13.4-29.2,29.2-29.2c16.5,0,29.2,13.4,29.2,29.2v158.4
			c0,129.2-38.6,253.7-111.9,360.1c-73.3,106.4-175.7,187.5-295.5,234C1987.3,2156.7,1941.6,2164.6,1895.9,2164.6L1895.9,2164.6z"/>
		<path id="_454987512" style="fill-rule:evenodd;clip-rule:evenodd;fill:#FEFEFE;" d="M2483.8,1370.3c-16.5,0-29.2-13.4-29.2-29.2
			v-162.3c0-249-202.5-452.3-452.3-452.3h-212.8c-249,0-452.3,202.5-452.3,452.3v162.3c0,16.5-13.4,29.2-29.2,29.2
			c-16.5,0-29.2-13.4-29.2-29.2v-162.3c0-282.1,229.3-511.4,511.4-511.4H2003c282.1,0,511.4,229.3,511.4,511.4v162.3
			C2512.9,1356.9,2499.5,1370.3,2483.8,1370.3z"/>
		<path id="_454986432" style="fill-rule:evenodd;clip-rule:evenodd;fill:#FEFEFE;" d="M1343.5,1357.7h1103.2
			c-113.5-44.9-305.7-92.2-517.7-89.8h-67C1648.5,1264.7,1456.2,1312.8,1343.5,1357.7L1343.5,1357.7z M2528.7,1416H1263.2
			c-18.9,0-34.7-12.6-39.4-30.7s3.2-36.2,18.9-45.7c90.6-52.8,338.8-134.7,620.2-131.6h66.2c278.9-3.9,528.7,78.8,620.2,131.6l0,0
			c15.8,9.5,23.6,27.6,18.9,45.7C2562.6,1404.2,2546.8,1416,2528.7,1416L2528.7,1416z"/>
		<path id="_454986312" style="fill-rule:evenodd;clip-rule:evenodd;fill:#FEFEFE;" d="M1895.9,2462.5
			c-188.3,0-335.7-85.9-335.7-196.2c0-16.5,13.4-29.2,29.2-29.2c16.5,0,29.2,13.4,29.2,29.2c0,66.2,111.1,137.1,276.6,137.1
			s276.6-70.9,276.6-137.1c0-16.5,13.4-29.2,29.2-29.2c16.5,0,29.2,13.4,29.2,29.2C2231.6,2375.8,2084.2,2462.5,1895.9,2462.5z"/>
		<path id="_454986216" style="fill-rule:evenodd;clip-rule:evenodd;fill:#FEFEFE;" d="M729.7,2134.7l44.1,30.7
			c3.2,2.4,5.5,4.7,7.9,7.9l18.9,28.4l18.1-28.4c2.4-3.2,4.7-6.3,7.9-7.9l44.1-30.7l-44.1-30.7c-3.2-2.4-5.5-4.7-7.9-7.9l-18.1-28.4
			l-18.9,28.4c-2.4,3.2-4.7,6.3-7.9,7.9L729.7,2134.7L729.7,2134.7z M800.6,2286c-10.2,0-19.7-4.7-24.4-13.4l-40.2-62.3l-74.1-51.2
			c-7.9-5.5-12.6-14.2-12.6-24.4c0-9.5,4.7-18.9,12.6-24.4L736,2059l40.2-62.3c5.5-8.7,15-13.4,24.4-13.4c10.2,0,18.9,4.7,24.4,13.4
			l40.2,62.3l74.1,51.2c7.9,5.5,12.6,14.2,12.6,24.4c0,9.5-4.7,18.9-12.6,24.4l-74.1,51.2l-40.2,62.3
			C819.5,2281.2,810.1,2286,800.6,2286z"/>
		<path id="_454986888" style="fill-rule:evenodd;clip-rule:evenodd;fill:#FEFEFE;" d="M1038.6,1840.8l44.1,30.7
			c3.2,2.4,5.5,4.7,7.9,7.9l18.1,28.4l18.1-28.4c2.4-3.2,4.7-6.3,7.9-8.7l44.1-30.7l-44.1-30.7c-3.2-2.4-6.3-4.7-7.9-8.7l-18.1-28.4
			l-18.1,28.4c-2.4,3.2-4.7,6.3-7.9,7.9L1038.6,1840.8z M1109.5,1992c-10.2,0-19.7-4.7-24.4-13.4l-40.2-62.3l-74.1-51.2
			c-7.9-5.5-12.6-15-12.6-24.4c0-9.5,4.7-18.9,12.6-24.4l74.1-51.2l40.2-62.3c5.5-8.7,15-13.4,24.4-13.4l0,0
			c10.2,0,19.7,5.5,24.4,13.4l39.4,62.3l74.1,51.2c7.9,5.5,12.6,14.2,12.6,24.4c0,9.5-4.7,18.9-12.6,24.4l-74.1,51.2l-39.4,62.3
			C1129.2,1986.5,1119.7,1992,1109.5,1992L1109.5,1992L1109.5,1992z"/>
		<path id="_454986840" style="fill-rule:evenodd;clip-rule:evenodd;fill:#FEFEFE;" d="M2911.6,2178.8
			c-140.3,0-253.7,113.5-253.7,253.7s113.5,253.7,253.7,253.7s253.7-113.5,253.7-253.7C3165.4,2293.1,3051.1,2178.8,2911.6,2178.8z
			 M2911.6,2745.4c-172.6,0-312.8-140.3-312.8-312.8c0-172.6,140.3-312.8,312.8-312.8s312.8,140.3,312.8,312.8
			S3084.2,2745.4,2911.6,2745.4z"/>
		<path id="_454986936" style="fill-rule:evenodd;clip-rule:evenodd;fill:#FEFEFE;" d="M2854.1,2563.3c-7.9,0-15-3.2-20.5-8.7
			l-87.5-87.5c-11.8-11.8-11.8-29.9,0-41.8s29.9-11.8,41.8,0l67,66.2l181.2-181.2c11.8-11.8,29.9-11.8,41.8,0s11.8,29.9,0,41.8
			l-201.7,201.7C2869.1,2560.2,2862,2563.3,2854.1,2563.3L2854.1,2563.3z"/>
	</g>
</g>
<rect style="fill:none;" width="3873" height="3873"/>
</svg>
